<mxfile host="app.diagrams.net" modified="2024-02-02T01:02:19.990Z" agent="Mozilla/5.0 (Windows NT 10.0; Win64; x64) AppleWebKit/537.36 (KHTML, like Gecko) Chrome/121.0.0.0 Safari/537.36" etag="QRFuzRp5LxmOivNLuqRg" version="23.1.1" type="device">
  <diagram id="qsd9eid6yhlWW0neavV4" name="Page-1">
    <mxGraphModel dx="988" dy="566" grid="1" gridSize="10" guides="1" tooltips="1" connect="1" arrows="1" fold="1" page="1" pageScale="1" pageWidth="1169" pageHeight="827" math="0" shadow="0">
      <root>
        <mxCell id="0" />
        <mxCell id="1" parent="0" />
        <mxCell id="Apt8rWJwy_xwA-LGVksk-5" style="edgeStyle=orthogonalEdgeStyle;rounded=0;orthogonalLoop=1;jettySize=auto;html=1;curved=1;" edge="1" parent="1" source="Apt8rWJwy_xwA-LGVksk-2" target="Apt8rWJwy_xwA-LGVksk-3">
          <mxGeometry relative="1" as="geometry" />
        </mxCell>
        <mxCell id="Apt8rWJwy_xwA-LGVksk-2" value="WIFI_INIT" style="ellipse;whiteSpace=wrap;html=1;aspect=fixed;fillColor=#f5f5f5;fontColor=#333333;strokeColor=#666666;" vertex="1" parent="1">
          <mxGeometry x="160" y="80" width="90" height="90" as="geometry" />
        </mxCell>
        <mxCell id="Apt8rWJwy_xwA-LGVksk-6" style="edgeStyle=orthogonalEdgeStyle;rounded=0;orthogonalLoop=1;jettySize=auto;html=1;curved=1;" edge="1" parent="1" source="Apt8rWJwy_xwA-LGVksk-3" target="Apt8rWJwy_xwA-LGVksk-4">
          <mxGeometry relative="1" as="geometry" />
        </mxCell>
        <mxCell id="Apt8rWJwy_xwA-LGVksk-3" value="AP_INIT" style="ellipse;whiteSpace=wrap;html=1;aspect=fixed;fillColor=#dae8fc;strokeColor=#6c8ebf;" vertex="1" parent="1">
          <mxGeometry x="10" y="230" width="90" height="90" as="geometry" />
        </mxCell>
        <mxCell id="Apt8rWJwy_xwA-LGVksk-9" style="edgeStyle=orthogonalEdgeStyle;rounded=0;orthogonalLoop=1;jettySize=auto;html=1;curved=1;" edge="1" parent="1" source="Apt8rWJwy_xwA-LGVksk-4" target="Apt8rWJwy_xwA-LGVksk-7">
          <mxGeometry relative="1" as="geometry" />
        </mxCell>
        <mxCell id="Apt8rWJwy_xwA-LGVksk-4" value="AP_CONFIG" style="ellipse;whiteSpace=wrap;html=1;aspect=fixed;fillColor=#dae8fc;strokeColor=#6c8ebf;" vertex="1" parent="1">
          <mxGeometry x="170" y="190" width="90" height="90" as="geometry" />
        </mxCell>
        <mxCell id="Apt8rWJwy_xwA-LGVksk-14" style="edgeStyle=orthogonalEdgeStyle;rounded=0;orthogonalLoop=1;jettySize=auto;html=1;curved=1;" edge="1" parent="1" source="Apt8rWJwy_xwA-LGVksk-7" target="Apt8rWJwy_xwA-LGVksk-11">
          <mxGeometry relative="1" as="geometry" />
        </mxCell>
        <mxCell id="Apt8rWJwy_xwA-LGVksk-44" value="(0, 0)" style="edgeLabel;html=1;align=center;verticalAlign=middle;resizable=0;points=[];fontSize=14;" vertex="1" connectable="0" parent="Apt8rWJwy_xwA-LGVksk-14">
          <mxGeometry x="-0.0489" y="-19" relative="1" as="geometry">
            <mxPoint as="offset" />
          </mxGeometry>
        </mxCell>
        <mxCell id="Apt8rWJwy_xwA-LGVksk-16" style="edgeStyle=orthogonalEdgeStyle;rounded=0;orthogonalLoop=1;jettySize=auto;html=1;curved=1;" edge="1" parent="1" source="Apt8rWJwy_xwA-LGVksk-7" target="Apt8rWJwy_xwA-LGVksk-12">
          <mxGeometry relative="1" as="geometry" />
        </mxCell>
        <mxCell id="Apt8rWJwy_xwA-LGVksk-19" style="edgeStyle=orthogonalEdgeStyle;rounded=0;orthogonalLoop=1;jettySize=auto;html=1;curved=1;" edge="1" parent="1" source="Apt8rWJwy_xwA-LGVksk-7" target="Apt8rWJwy_xwA-LGVksk-10">
          <mxGeometry relative="1" as="geometry" />
        </mxCell>
        <mxCell id="Apt8rWJwy_xwA-LGVksk-43" value="(1,1)" style="edgeLabel;html=1;align=center;verticalAlign=middle;resizable=0;points=[];fontSize=14;" vertex="1" connectable="0" parent="Apt8rWJwy_xwA-LGVksk-19">
          <mxGeometry x="0.3745" y="14" relative="1" as="geometry">
            <mxPoint as="offset" />
          </mxGeometry>
        </mxCell>
        <mxCell id="Apt8rWJwy_xwA-LGVksk-7" value="WIFI_START" style="ellipse;whiteSpace=wrap;html=1;aspect=fixed;fillColor=#f5f5f5;fontColor=#333333;strokeColor=#666666;" vertex="1" parent="1">
          <mxGeometry x="280" y="305" width="90" height="90" as="geometry" />
        </mxCell>
        <mxCell id="Apt8rWJwy_xwA-LGVksk-50" style="edgeStyle=orthogonalEdgeStyle;rounded=0;orthogonalLoop=1;jettySize=auto;html=1;curved=1;" edge="1" parent="1" source="Apt8rWJwy_xwA-LGVksk-10" target="Apt8rWJwy_xwA-LGVksk-49">
          <mxGeometry relative="1" as="geometry" />
        </mxCell>
        <mxCell id="Apt8rWJwy_xwA-LGVksk-10" value="CLOSE_WEB" style="ellipse;whiteSpace=wrap;html=1;aspect=fixed;fillColor=#f8cecc;strokeColor=#b85450;" vertex="1" parent="1">
          <mxGeometry x="460" y="220" width="90" height="90" as="geometry" />
        </mxCell>
        <mxCell id="Apt8rWJwy_xwA-LGVksk-15" style="edgeStyle=orthogonalEdgeStyle;rounded=0;orthogonalLoop=1;jettySize=auto;html=1;curved=1;" edge="1" parent="1" source="Apt8rWJwy_xwA-LGVksk-11" target="Apt8rWJwy_xwA-LGVksk-12">
          <mxGeometry relative="1" as="geometry" />
        </mxCell>
        <mxCell id="Apt8rWJwy_xwA-LGVksk-11" value="START_WEB" style="ellipse;whiteSpace=wrap;html=1;aspect=fixed;fillColor=#f8cecc;strokeColor=#b85450;" vertex="1" parent="1">
          <mxGeometry x="470" y="430" width="90" height="90" as="geometry" />
        </mxCell>
        <mxCell id="Apt8rWJwy_xwA-LGVksk-17" style="edgeStyle=orthogonalEdgeStyle;rounded=0;orthogonalLoop=1;jettySize=auto;html=1;curved=1;" edge="1" parent="1" source="Apt8rWJwy_xwA-LGVksk-12" target="Apt8rWJwy_xwA-LGVksk-13">
          <mxGeometry relative="1" as="geometry" />
        </mxCell>
        <mxCell id="Apt8rWJwy_xwA-LGVksk-48" value="(1, X)" style="edgeLabel;html=1;align=center;verticalAlign=middle;resizable=0;points=[];" vertex="1" connectable="0" parent="Apt8rWJwy_xwA-LGVksk-17">
          <mxGeometry x="0.4157" y="-11" relative="1" as="geometry">
            <mxPoint as="offset" />
          </mxGeometry>
        </mxCell>
        <mxCell id="Apt8rWJwy_xwA-LGVksk-12" value="STA_INIT" style="ellipse;whiteSpace=wrap;html=1;aspect=fixed;fillColor=#ffe6cc;strokeColor=#d79b00;" vertex="1" parent="1">
          <mxGeometry x="220" y="500" width="90" height="90" as="geometry" />
        </mxCell>
        <mxCell id="Apt8rWJwy_xwA-LGVksk-18" style="edgeStyle=orthogonalEdgeStyle;rounded=0;orthogonalLoop=1;jettySize=auto;html=1;curved=1;" edge="1" parent="1" source="Apt8rWJwy_xwA-LGVksk-13" target="Apt8rWJwy_xwA-LGVksk-7">
          <mxGeometry relative="1" as="geometry" />
        </mxCell>
        <mxCell id="Apt8rWJwy_xwA-LGVksk-13" value="STA_CONFIG" style="ellipse;whiteSpace=wrap;html=1;aspect=fixed;fillColor=#ffe6cc;strokeColor=#d79b00;" vertex="1" parent="1">
          <mxGeometry x="60" y="360" width="90" height="90" as="geometry" />
        </mxCell>
        <mxCell id="Apt8rWJwy_xwA-LGVksk-22" value="WIFI_START State Switch" style="shape=table;startSize=30;container=1;collapsible=0;childLayout=tableLayout;strokeColor=default;fontSize=16;" vertex="1" parent="1">
          <mxGeometry x="650" y="45" width="470" height="260" as="geometry" />
        </mxCell>
        <mxCell id="Apt8rWJwy_xwA-LGVksk-23" value="" style="shape=tableRow;horizontal=0;startSize=0;swimlaneHead=0;swimlaneBody=0;strokeColor=inherit;top=0;left=0;bottom=0;right=0;collapsible=0;dropTarget=0;fillColor=none;points=[[0,0.5],[1,0.5]];portConstraint=eastwest;fontSize=16;" vertex="1" parent="Apt8rWJwy_xwA-LGVksk-22">
          <mxGeometry y="30" width="470" height="70" as="geometry" />
        </mxCell>
        <mxCell id="Apt8rWJwy_xwA-LGVksk-24" value="config" style="shape=partialRectangle;html=1;whiteSpace=wrap;connectable=0;strokeColor=inherit;overflow=hidden;fillColor=none;top=0;left=0;bottom=0;right=0;pointerEvents=1;fontSize=16;" vertex="1" parent="Apt8rWJwy_xwA-LGVksk-23">
          <mxGeometry width="157" height="70" as="geometry">
            <mxRectangle width="157" height="70" as="alternateBounds" />
          </mxGeometry>
        </mxCell>
        <mxCell id="Apt8rWJwy_xwA-LGVksk-25" value="connected" style="shape=partialRectangle;html=1;whiteSpace=wrap;connectable=0;strokeColor=inherit;overflow=hidden;fillColor=none;top=0;left=0;bottom=0;right=0;pointerEvents=1;fontSize=16;" vertex="1" parent="Apt8rWJwy_xwA-LGVksk-23">
          <mxGeometry x="157" width="156" height="70" as="geometry">
            <mxRectangle width="156" height="70" as="alternateBounds" />
          </mxGeometry>
        </mxCell>
        <mxCell id="Apt8rWJwy_xwA-LGVksk-26" value="(config, connected) (X, Y)" style="shape=partialRectangle;html=1;whiteSpace=wrap;connectable=0;strokeColor=inherit;overflow=hidden;fillColor=none;top=0;left=0;bottom=0;right=0;pointerEvents=1;fontSize=16;" vertex="1" parent="Apt8rWJwy_xwA-LGVksk-23">
          <mxGeometry x="313" width="157" height="70" as="geometry">
            <mxRectangle width="157" height="70" as="alternateBounds" />
          </mxGeometry>
        </mxCell>
        <mxCell id="Apt8rWJwy_xwA-LGVksk-27" value="" style="shape=tableRow;horizontal=0;startSize=0;swimlaneHead=0;swimlaneBody=0;strokeColor=inherit;top=0;left=0;bottom=0;right=0;collapsible=0;dropTarget=0;fillColor=none;points=[[0,0.5],[1,0.5]];portConstraint=eastwest;fontSize=16;" vertex="1" parent="Apt8rWJwy_xwA-LGVksk-22">
          <mxGeometry y="100" width="470" height="40" as="geometry" />
        </mxCell>
        <mxCell id="Apt8rWJwy_xwA-LGVksk-28" value="0" style="shape=partialRectangle;html=1;whiteSpace=wrap;connectable=0;strokeColor=inherit;overflow=hidden;fillColor=none;top=0;left=0;bottom=0;right=0;pointerEvents=1;fontSize=16;" vertex="1" parent="Apt8rWJwy_xwA-LGVksk-27">
          <mxGeometry width="157" height="40" as="geometry">
            <mxRectangle width="157" height="40" as="alternateBounds" />
          </mxGeometry>
        </mxCell>
        <mxCell id="Apt8rWJwy_xwA-LGVksk-29" value="0" style="shape=partialRectangle;html=1;whiteSpace=wrap;connectable=0;strokeColor=inherit;overflow=hidden;fillColor=none;top=0;left=0;bottom=0;right=0;pointerEvents=1;fontSize=16;" vertex="1" parent="Apt8rWJwy_xwA-LGVksk-27">
          <mxGeometry x="157" width="156" height="40" as="geometry">
            <mxRectangle width="156" height="40" as="alternateBounds" />
          </mxGeometry>
        </mxCell>
        <mxCell id="Apt8rWJwy_xwA-LGVksk-30" value="START_WEB" style="shape=partialRectangle;html=1;whiteSpace=wrap;connectable=0;strokeColor=inherit;overflow=hidden;fillColor=none;top=0;left=0;bottom=0;right=0;pointerEvents=1;fontSize=16;" vertex="1" parent="Apt8rWJwy_xwA-LGVksk-27">
          <mxGeometry x="313" width="157" height="40" as="geometry">
            <mxRectangle width="157" height="40" as="alternateBounds" />
          </mxGeometry>
        </mxCell>
        <mxCell id="Apt8rWJwy_xwA-LGVksk-35" value="" style="shape=tableRow;horizontal=0;startSize=0;swimlaneHead=0;swimlaneBody=0;strokeColor=inherit;top=0;left=0;bottom=0;right=0;collapsible=0;dropTarget=0;fillColor=none;points=[[0,0.5],[1,0.5]];portConstraint=eastwest;fontSize=16;" vertex="1" parent="Apt8rWJwy_xwA-LGVksk-22">
          <mxGeometry y="140" width="470" height="40" as="geometry" />
        </mxCell>
        <mxCell id="Apt8rWJwy_xwA-LGVksk-36" value="0" style="shape=partialRectangle;html=1;whiteSpace=wrap;connectable=0;strokeColor=inherit;overflow=hidden;fillColor=none;top=0;left=0;bottom=0;right=0;pointerEvents=1;fontSize=16;" vertex="1" parent="Apt8rWJwy_xwA-LGVksk-35">
          <mxGeometry width="157" height="40" as="geometry">
            <mxRectangle width="157" height="40" as="alternateBounds" />
          </mxGeometry>
        </mxCell>
        <mxCell id="Apt8rWJwy_xwA-LGVksk-37" value="1" style="shape=partialRectangle;html=1;whiteSpace=wrap;connectable=0;strokeColor=inherit;overflow=hidden;fillColor=none;top=0;left=0;bottom=0;right=0;pointerEvents=1;fontSize=16;" vertex="1" parent="Apt8rWJwy_xwA-LGVksk-35">
          <mxGeometry x="157" width="156" height="40" as="geometry">
            <mxRectangle width="156" height="40" as="alternateBounds" />
          </mxGeometry>
        </mxCell>
        <mxCell id="Apt8rWJwy_xwA-LGVksk-38" value="X" style="shape=partialRectangle;html=1;whiteSpace=wrap;connectable=0;strokeColor=inherit;overflow=hidden;fillColor=none;top=0;left=0;bottom=0;right=0;pointerEvents=1;fontSize=16;" vertex="1" parent="Apt8rWJwy_xwA-LGVksk-35">
          <mxGeometry x="313" width="157" height="40" as="geometry">
            <mxRectangle width="157" height="40" as="alternateBounds" />
          </mxGeometry>
        </mxCell>
        <mxCell id="Apt8rWJwy_xwA-LGVksk-39" value="" style="shape=tableRow;horizontal=0;startSize=0;swimlaneHead=0;swimlaneBody=0;strokeColor=inherit;top=0;left=0;bottom=0;right=0;collapsible=0;dropTarget=0;fillColor=none;points=[[0,0.5],[1,0.5]];portConstraint=eastwest;fontSize=16;" vertex="1" parent="Apt8rWJwy_xwA-LGVksk-22">
          <mxGeometry y="180" width="470" height="40" as="geometry" />
        </mxCell>
        <mxCell id="Apt8rWJwy_xwA-LGVksk-40" value="1" style="shape=partialRectangle;html=1;whiteSpace=wrap;connectable=0;strokeColor=inherit;overflow=hidden;fillColor=none;top=0;left=0;bottom=0;right=0;pointerEvents=1;fontSize=16;" vertex="1" parent="Apt8rWJwy_xwA-LGVksk-39">
          <mxGeometry width="157" height="40" as="geometry">
            <mxRectangle width="157" height="40" as="alternateBounds" />
          </mxGeometry>
        </mxCell>
        <mxCell id="Apt8rWJwy_xwA-LGVksk-41" value="0" style="shape=partialRectangle;html=1;whiteSpace=wrap;connectable=0;strokeColor=inherit;overflow=hidden;fillColor=none;top=0;left=0;bottom=0;right=0;pointerEvents=1;fontSize=16;" vertex="1" parent="Apt8rWJwy_xwA-LGVksk-39">
          <mxGeometry x="157" width="156" height="40" as="geometry">
            <mxRectangle width="156" height="40" as="alternateBounds" />
          </mxGeometry>
        </mxCell>
        <mxCell id="Apt8rWJwy_xwA-LGVksk-42" value="STA_INIT" style="shape=partialRectangle;html=1;whiteSpace=wrap;connectable=0;strokeColor=inherit;overflow=hidden;fillColor=none;top=0;left=0;bottom=0;right=0;pointerEvents=1;fontSize=16;" vertex="1" parent="Apt8rWJwy_xwA-LGVksk-39">
          <mxGeometry x="313" width="157" height="40" as="geometry">
            <mxRectangle width="157" height="40" as="alternateBounds" />
          </mxGeometry>
        </mxCell>
        <mxCell id="Apt8rWJwy_xwA-LGVksk-31" value="" style="shape=tableRow;horizontal=0;startSize=0;swimlaneHead=0;swimlaneBody=0;strokeColor=inherit;top=0;left=0;bottom=0;right=0;collapsible=0;dropTarget=0;fillColor=none;points=[[0,0.5],[1,0.5]];portConstraint=eastwest;fontSize=16;" vertex="1" parent="Apt8rWJwy_xwA-LGVksk-22">
          <mxGeometry y="220" width="470" height="40" as="geometry" />
        </mxCell>
        <mxCell id="Apt8rWJwy_xwA-LGVksk-32" value="1" style="shape=partialRectangle;html=1;whiteSpace=wrap;connectable=0;strokeColor=inherit;overflow=hidden;fillColor=none;top=0;left=0;bottom=0;right=0;pointerEvents=1;fontSize=16;" vertex="1" parent="Apt8rWJwy_xwA-LGVksk-31">
          <mxGeometry width="157" height="40" as="geometry">
            <mxRectangle width="157" height="40" as="alternateBounds" />
          </mxGeometry>
        </mxCell>
        <mxCell id="Apt8rWJwy_xwA-LGVksk-33" value="1" style="shape=partialRectangle;html=1;whiteSpace=wrap;connectable=0;strokeColor=inherit;overflow=hidden;fillColor=none;top=0;left=0;bottom=0;right=0;pointerEvents=1;fontSize=16;" vertex="1" parent="Apt8rWJwy_xwA-LGVksk-31">
          <mxGeometry x="157" width="156" height="40" as="geometry">
            <mxRectangle width="156" height="40" as="alternateBounds" />
          </mxGeometry>
        </mxCell>
        <mxCell id="Apt8rWJwy_xwA-LGVksk-34" value="CLOST_WEB" style="shape=partialRectangle;html=1;whiteSpace=wrap;connectable=0;strokeColor=inherit;overflow=hidden;fillColor=none;top=0;left=0;bottom=0;right=0;pointerEvents=1;fontSize=16;" vertex="1" parent="Apt8rWJwy_xwA-LGVksk-31">
          <mxGeometry x="313" width="157" height="40" as="geometry">
            <mxRectangle width="157" height="40" as="alternateBounds" />
          </mxGeometry>
        </mxCell>
        <mxCell id="Apt8rWJwy_xwA-LGVksk-49" value="WIFI_IDLE" style="ellipse;whiteSpace=wrap;html=1;aspect=fixed;fillColor=#f5f5f5;fontColor=#333333;strokeColor=#666666;" vertex="1" parent="1">
          <mxGeometry x="360" y="60" width="90" height="90" as="geometry" />
        </mxCell>
        <mxCell id="Apt8rWJwy_xwA-LGVksk-51" style="edgeStyle=orthogonalEdgeStyle;rounded=0;orthogonalLoop=1;jettySize=auto;html=1;curved=1;" edge="1" parent="1" source="Apt8rWJwy_xwA-LGVksk-12" target="Apt8rWJwy_xwA-LGVksk-12">
          <mxGeometry relative="1" as="geometry">
            <Array as="points">
              <mxPoint x="290" y="620" />
            </Array>
          </mxGeometry>
        </mxCell>
        <mxCell id="Apt8rWJwy_xwA-LGVksk-52" value="(0, X)" style="edgeLabel;html=1;align=center;verticalAlign=middle;resizable=0;points=[];" vertex="1" connectable="0" parent="Apt8rWJwy_xwA-LGVksk-51">
          <mxGeometry x="-0.1085" relative="1" as="geometry">
            <mxPoint as="offset" />
          </mxGeometry>
        </mxCell>
      </root>
    </mxGraphModel>
  </diagram>
</mxfile>
